<svg class="svg-icon" style="width: 1em; height: 1em;vertical-align: middle;fill: currentColor;overflow: hidden;" viewBox="0 0 1024 1024" version="1.1" xmlns="http://www.w3.org/2000/svg"><path d="M864.362186 868.603791l-31.992645-502.230496c-0.937348-8.541537-8.16189-15.007809-16.751522-15.007809L681.148421 351.365486l0-67.326385c0-93.062536-75.454506-168.518065-168.518065-168.518065s-168.518065 75.454506-168.518065 168.518065l0 67.326385L210.498178 351.365486c-8.575306 0-15.782451 6.434549-16.737196 14.942317L158.954245 871.848695c-0.542352 4.774747 0.971118 9.5454 4.164856 13.114692 3.192715 3.588735 7.767917 5.64558 12.57234 5.64558l672.28045 0c0.12996 0 0.246617 0 0.328481 0 9.31618 0 16.85283-7.554046 16.85283-16.853853 0.001023-1.809205-0.278339-3.521197-0.789992-5.1503L864.362186 868.603791 864.362186 868.603791zM377.813858 284.038078c0-74.449619 60.362786-134.814452 134.815475-134.814452 74.450642 0 134.813428 60.363809 134.813428 134.814452l0 67.326385L377.813858 351.364463 377.813858 284.038078 377.813858 284.038078zM194.566324 856.886935l30.972409-471.819882 118.573559 0 0 38.307468c-10.072403 5.828752-16.85283 16.711614-16.85283 29.184693 0 18.611893 15.090697 33.70259 33.70259 33.70259 18.611893 0 33.704636-15.090697 33.704636-33.70259 0-12.472056-6.78145-23.354917-16.85283-29.183669l0-38.308491 269.628904 0L647.442762 423.375543c-10.070356 5.828752-16.851806 16.711614-16.851806 29.182646 0 18.611893 15.092743 33.70259 33.704636 33.70259 18.611893 0 33.70259-15.090697 33.70259-33.70259 0-12.472056-6.78145-23.355941-16.85283-29.184693l0-38.306444 119.363552 0 28.667923 471.818859-634.613572 0L194.566324 856.886935 194.566324 856.886935z"  /></svg>