<svg class="svg-icon" style="width: 1em; height: 1em;vertical-align: middle;fill: currentColor;overflow: hidden;" viewBox="0 0 1024 1024" version="1.1" xmlns="http://www.w3.org/2000/svg"><path d="M510.9 648c-308.3 0-389.4 176.9-389.4 311.5h778.8c0-134.6-81.1-311.5-389.4-311.5zM163 920.6C175 829 237.8 687 510.9 687c273.1 0 335.9 142 347.9 233.6H163zM510.9 570.1c118.3 0 214.2-152.3 214.2-292.1S629.2 63.8 510.9 63.8c-118.3 0-214.2 74.4-214.2 214.2 0 139.9 95.9 292.1 214.2 292.1z m0-467.3c84.7 0 175.2 46 175.2 175.2 0 127.8-86.8 253.1-175.2 253.1-88.5 0-175.2-125.4-175.2-253.1 0-129.2 90.5-175.2 175.2-175.2z" fill="#060001" /></svg>